<svg xmlns="http://www.w3.org/2000/svg" width="1938" height="1030" viewBox="0 0 1938 1030"><path d="M1395.121 1030V553.953l-12.191-3.725c-6.774-1.863-13.376-3.556-14.395-3.556-1.68 0-2.194 98.093-2.201 483.327h28.787zm-35.619 0c.039-74.463.061-154.175.061-236.956 0-590.275-.508-739.113-2.033-738.944-1.186.169-19.98 6.773-41.484 14.562l-39.453 14.393v434.832l-4.572-1.015c-2.709-.679-7.62-2.203-11.346-3.558-3.554-1.186-6.773-2.2-7.11-2.2-.335 0-.669 232.471-.678 518.886h106.615zm123.669 0V580.707l-14.731-4.57c-8.297-2.372-15.409-4.744-16.086-5.251-.842-.337-1.35 205.84-1.355 459.114h32.172zm-303.427 0l.331-540.56-11.007-3.726-11.006-3.726V304.366c0-141.05-.508-177.625-2.032-177.456-1.187.169-16.254 5.417-33.526 11.683l-31.326 11.514-.339 650.725-.178 229.168h89.083zm-133.437 0V448.631l-14.731-4.401c-8.296-2.372-18.288-5.588-22.352-6.942-4.233-1.185-8.128-2.371-8.974-2.371-.665 0-1.33 266.022-1.354 595.083h47.411zm514.418 0l.337-425.588-13.547-4.402c-7.62-2.37-14.054-4.232-14.562-4.232-.337 0-.676 195.149-.678 434.223h28.45zm288.193 0V692.125l-5.419-2.203c-3.048-1.354-7.28-2.876-9.313-3.387l-3.895-1.184V1030h18.627zm-915.426 0h55.164c.052-70.049.08-146.298.08-225.951 0-338.992-.51-616.35-1.186-616.181-.848 0-13.376 4.403-27.939 9.651l-26.753 9.652.507 598.402.127 224.427zm996.374 0l-.011-9.551-.508-305.128-7.111-2.03-7.281-2.202V1030h14.911zm-128.694 0l-.005-5.318-.509-348.135-7.617-2.201c-4.235-1.355-8.637-2.371-9.654-2.371-1.692 0-2.2 71.795-2.2 353.047v4.979h19.985zm-169.332 0v-.405l-.508-403.847-8.466-2.879c-4.572-1.525-10.499-3.387-13.039-4.064l-4.741-1.015V1030h26.754zm62.652 0l-.002-2.777-.507-383.02-10.16-3.047c-5.588-1.693-11.176-3.047-12.192-3.047-1.692 0-2.2 79.244-2.2 390.467V1030h25.061zm55.88 0l-.004-3.963-.507-364.9-7.451-2.201c-4.062-1.186-8.804-2.539-10.498-3.047-3.049-1.016-3.217 8.974-3.217 370.827V1030h21.677zm140.548 0l-.01-8.703-.508-317.658-7.62-2.2c-4.232-1.356-7.787-2.372-7.957-2.372-.341 0-.509 145.621-.509 323.584v7.35h16.604zm-1640.732 0c.022-58.886.005-129.465-.058-205.123l-.507-370.827-10.16 3.726-10.16 3.894-.507 364.9-.189 203.43h21.581zm-52.288 0c.065-49.623.077-115.288.077-202.076 0-282.098-.508-354.062-2.032-353.894-1.186 0-5.588 1.355-9.82 2.879l-7.62 3.048-.508 348.137-.196 201.906H197.9zm-93.346 0c.038-55.263.027-125.089-.045-200.721l-.508-322.567-7.62 2.877-7.62 2.879V1030h15.793zm44.091 0c.144-56.34.228-126.099.228-201.397 0-185.752-.507-337.808-1.185-337.639-.847 0-4.741 1.356-8.975 3.049l-7.62 3.216V1030h17.552zm740.188 0V401.22l-17.272-5.249c-9.651-2.879-18.794-5.758-20.319-6.095-2.879-.847-3.047-5.927-3.047-76.198 0-41.316-.509-75.182-1.186-75.012-.847 0-2.879.678-4.742 1.354-1.861.678-12.36 4.573-23.198 8.467l-19.979 7.282V1030h89.743zm-824.879 0c.156-53.927.255-123.358.255-198.857 0-170.514-.508-309.869-1.186-309.701-.847.172-4.233 1.356-7.62 2.711l-6.434 2.708V1030h14.985zm-37.181 0c.142-44.413.184-107.873.184-198.012 0-163.4-.507-297.169-1.186-297.169-.847.17-3.895 1.187-6.773 2.54l-5.587 2.371V1030h13.362zm586.056 0V816.072c0-270.078-.507-491.387-1.185-491.726-.847-.339-7.113 1.354-14.054 3.895l-12.699 4.741V1030h27.938zm-84.791 0c.082-63.731.128-135.985.128-212.404 0-255.176-.508-463.956-1.186-463.787-.847.17-7.789 2.71-15.747 5.588l-14.394 5.588V1030h31.199zm198.138 0c.066-66.647.103-140.598.103-218.33 0-291.074-.508-529.147-1.186-528.979-.846 0-10.159 3.218-20.827 7.112l-19.473 7.112-.507 20.827c-.17 11.345-1.017 20.658-1.693 20.658-.678 0-14.732-4.065-31.157-9.144-16.594-4.91-30.479-8.635-30.987-8.128-.495.495-.83 316.77-.846 708.872h106.573zm-352.224 0c.087-56.1.126-124.991.126-208.17 0-226.731-.508-412.312-1.186-412.144-.847 0-6.603 2.203-13.207 4.743l-11.853 4.57-.507 404.016-.174 206.985h26.801zm-64.393 0c.112-60.064.175-130.944.175-206.646 0-311.055-.508-390.13-2.033-389.962-1.186.171-6.773 1.864-12.36 4.065l-10.16 3.725V1030h24.378zm137.05 0c.015-62.63-.005-134.566-.059-210.88l-.507-436.017-14.393 5.417-14.394 5.25V1030h29.353z" fill="#FFF"/></svg>