<?xml version="1.0" encoding="utf-8"?>
<!-- Generator: Adobe Illustrator 16.0.0, SVG Export Plug-In . SVG Version: 6.00 Build 0)  -->
<!DOCTYPE svg PUBLIC "-//W3C//DTD SVG 1.1//EN" "http://www.w3.org/Graphics/SVG/1.1/DTD/svg11.dtd">
<svg version="1.1" id="Layer_2" xmlns="http://www.w3.org/2000/svg" xmlns:xlink="http://www.w3.org/1999/xlink" x="0px" y="0px"
	 width="1037.326px" height="1030px" viewBox="0 0 1037.326 1030" enable-background="new 0 0 1037.326 1030" xml:space="preserve">
<path d="M1020.547,1012.526H19.467V11.446h1001.08V1012.526z M108.232,923.761h823.549V100.212H108.232V923.761z"/>
<path d="M931.781,276.51H108.232H19.467v-66.574h1001.08v66.574H931.781z"/>
<rect x="214.724" y="386.235" width="108.492" height="108.491"/>
<rect x="214.724" y="548.972" width="108.492" height="108.491"/>
<rect x="214.724" y="716.641" width="108.492" height="108.491"/>
<rect x="377.461" y="386.235" width="108.491" height="108.491"/>
<rect x="377.461" y="548.972" width="108.491" height="108.491"/>
<rect x="377.461" y="716.641" width="108.491" height="108.491"/>
<rect x="545.13" y="386.235" width="108.491" height="108.491"/>
<rect x="545.13" y="548.972" width="108.491" height="108.491"/>
<rect x="545.13" y="716.641" width="108.491" height="108.491"/>
<rect x="707.867" y="386.235" width="108.492" height="108.491"/>
<rect x="707.867" y="548.972" width="108.492" height="108.491"/>
<rect x="707.867" y="716.641" width="108.492" height="108.491"/>
</svg>
