<svg xmlns="http://www.w3.org/2000/svg" width="1037.326" height="1030" viewBox="0 0 1037.326 1030"><path d="M1020.547 1012.526H19.467V11.446h1001.08v1001.08zm-912.315-88.765h823.549V100.212H108.232v823.549z"/><path d="M931.781 276.51H19.467v-66.574h1001.08v66.574h-88.766zM214.724 386.235h108.492v108.491H214.724zm0 162.737h108.492v108.491H214.724zm0 167.669h108.492v108.491H214.724zm162.737-330.406h108.491v108.491H377.461zm0 162.737h108.491v108.491H377.461zm0 167.669h108.491v108.491H377.461zM545.13 386.235h108.491v108.491H545.13zm0 162.737h108.491v108.491H545.13zm0 167.669h108.491v108.491H545.13zm162.737-330.406h108.492v108.491H707.867zm0 162.737h108.492v108.491H707.867zm0 167.669h108.492v108.491H707.867z"/></svg>