<svg xmlns="http://www.w3.org/2000/svg" width="1400.81" height="915.07" viewBox="0 0 1400.81 915.07"><path fill="#FFF" d="M1395.069 908.219H6.895V3.824h1388.174v904.395zm-1311.174-77h1234.174V80.824H83.895v750.395z"/><path fill="#FFF" d="M699.246 557.079c-40.141 0-61.518-14.28-71.179-23.587L23.485 79.183l46.257-61.558 611.4 459.434.389.519c2.335.92 7.791 2.502 17.714 2.502 13.054 0 20.924-.98 25.291-1.83L1337.52 17.626l46.257 61.558-601.436 451.945c-4.22 5.263-10.271 10.53-18.947 14.868-14.915 7.457-35.898 11.082-64.148 11.082z"/></svg>