<?xml version="1.0" encoding="utf-8"?>
<!-- Generator: Adobe Illustrator 16.0.0, SVG Export Plug-In . SVG Version: 6.00 Build 0)  -->
<!DOCTYPE svg PUBLIC "-//W3C//DTD SVG 1.1//EN" "http://www.w3.org/Graphics/SVG/1.1/DTD/svg11.dtd">
<svg version="1.1" id="Layer_1" xmlns="http://www.w3.org/2000/svg" xmlns:xlink="http://www.w3.org/1999/xlink" x="0px" y="0px"
	 width="1400.81px" height="915.07px" viewBox="0 0 1400.81 915.07" enable-background="new 0 0 1400.81 915.07"
	 xml:space="preserve">
<path fill="#FFFFFF" d="M1395.069,908.219H6.895V3.824h1388.174V908.219z M83.895,831.219h1234.174V80.824H83.895V831.219z"/>
<path fill="#FFFFFF" d="M699.246,557.079c-40.141,0-61.518-14.28-71.179-23.587L23.485,79.183l46.257-61.558l611.4,459.434
	l0.389,0.519c2.335,0.92,7.791,2.502,17.714,2.502c13.054,0,20.924-0.98,25.291-1.83l612.984-460.624l46.257,61.558L782.341,531.129
	c-4.22,5.263-10.271,10.53-18.947,14.868C748.479,553.454,727.496,557.079,699.246,557.079z"/>
</svg>
