<svg xmlns="http://www.w3.org/2000/svg" width="1938" height="1030" viewBox="0 0 1938 1030"><path d="M1483.3 8.7l-23.3 8.5V274l-2.7-.6c-1.6-.4-4.5-1.3-6.7-2.1-2.1-.7-4-1.3-4.2-1.3-.2 0-.4 140.8-.4 312.9v312.8l12.5-4.5 12.5-4.5v-12.5c0-9.9.3-12.3 1.3-11.9 2.4.9 35.4 10.7 36 10.7.4 0 .7-196.4.7-436.5 0-348.6-.3-436.5-1.2-436.4-.7.1-11.8 4-24.5 8.6zM1369 50l-18.5 6.8-.2 384.3-.3 384.4 11.8 3.5 11.7 3.5.3 44.6.2 44.6 14.3-5.1 14.2-5.2.3-327.1.2-327.1-6.5-2.2-6.5-2.2V147.9c0-83.3-.3-104.9-1.2-104.8-.7.1-9.6 3.2-19.8 6.9zm-96.2 34.8l-15.8 5.7.3 353.4.2 353.5 15.5 4.8c8.5 2.6 15.8 4.8 16.3 4.8.4 0 .7-163.8.7-364s-.3-364-.7-363.9c-.5 0-7.9 2.6-16.5 5.7zm-69.3 25.1c-1.1.4-7.3 2.7-13.7 5l-11.8 4.3v654.3l6.5 1.9 6.5 1.8.2 105.2.3 105.2 19.7-7 19.8-7.1V205.1l-10.2-3.1c-5.7-1.7-11.1-3.4-12-3.6-1.7-.5-1.8-3.5-1.8-45 0-24.4-.3-44.4-.7-44.3-.5 0-1.7.4-2.8.8zm-81.5 29.4l-11.5 4.2-.3 12.3c-.1 6.7-.6 12.2-1 12.2s-8.7-2.4-18.4-5.4c-9.8-2.9-18-5.1-18.3-4.8-.3.3-.5 196.7-.5 436.4 0 348 .3 435.8 1.3 435.8.6 0 11.6-3.8 24.2-8.4l23-8.3.3-128.6.2-128.5 6.3 1.9c3.4 1 6.5 1.9 7 1.9.4 0 .7-140.6.7-312.5s-.3-312.5-.7-312.4c-.5 0-6 1.9-12.3 4.2zm-63 22.7l-7.5 2.8v570.4l5.7 1.8c3.2 1 6.9 2.1 8.3 2.4l2.5.6V450.1c0-159.5-.3-290.2-.7-290.4-.5-.2-4.2.8-8.3 2.3zm-51 18.4l-8.5 3.3v535.7l8.5 2.7c4.7 1.5 8.8 2.8 9.3 2.8.4.1.7-123.2.7-273.9s-.3-274-.7-273.9c-.5.1-4.6 1.6-9.3 3.3zm-47 17.2l-8.5 3.1v504.5l8.3 2.6c4.5 1.4 8.4 2.3 8.7 2 .3-.2.4-116.3.3-257.9l-.3-257.5-8.5 3.2zm-42.5 15.3l-7 2.7-.3 238.6-.2 238.6 6.9 2.1c3.8 1.2 7.4 2.1 8 2.1.8 0 1.1-67.8 1.1-243.5 0-133.9-.3-243.5-.7-243.4-.5 0-3.9 1.3-7.8 2.8zm-38 13.6l-6 2.2v452.8l6.5 2.1c3.6 1.2 6.8 2 7.3 1.7.4-.2.7-104.1.7-230.9 0-183.7-.3-230.4-1.2-230.3-.7.1-4 1.1-7.3 2.4zm415.5 361v362.4l9.8-3.5c5.3-1.9 11.6-4.2 14-5.1l4.2-1.6V233.1l-8.7-2.6c-4.9-1.4-10.8-3.3-13.2-4.1-2.5-.7-4.8-1.4-5.3-1.4-.4 0-.8 163.1-.8 362.5zm-448.5-349l-6 2.3-.3 215.5-.2 215.4 6.1 1.7c3.3 1 6.3 1.6 6.5 1.3.2-.2.3-98.9.2-219.4l-.3-219-6 2.2zM816 249.8l-4.5 1.8-.3 205.6-.2 205.6 4.4 1.1c2.4.6 5.1 1.3 6 1.7 1.5.6 1.6-15.7 1.6-208.5 0-166.6-.3-209.1-1.2-209-.7 0-3.3.8-5.8 1.7zm-28 10.1l-4.5 1.9v392.5l4.5 1.3c2.5.8 4.8 1.4 5.3 1.4.4 0 .7-89.8.7-199.5s-.3-199.5-.7-199.4c-.5 0-2.8.8-5.3 1.8zm-25 9.2l-4.5 1.7v375.7l4.3 1.4c2.4.7 4.5 1.1 4.8.9.2-.3.3-86.2.2-190.9l-.3-190.5-4.5 1.7zm-24.2 8.6l-3.8 1.6v360.4l3.9 1.1c2.1.7 4.1 1.2 4.5 1.2.3 0 .6-82.4.6-183 0-100.7-.3-183-.7-182.9-.5.1-2.5.8-4.5 1.6zm-21.5 7.8l-3.3 1.4V633l2.6 1c1.4.6 3.2 1 4 1 1.2 0 1.4-23.7 1.4-175.5 0-96.5-.3-175.5-.7-175.5-.5.1-2.3.7-4 1.5zm-19.3 7l-3.5 1.2v333.7l3.3 1c1.8.5 3.5.7 3.7.4.3-.3.4-76.3.3-169l-.3-168.5-3.5 1.2zM1513 581c0 159.5.3 290 .7 290 .4 0 4.2-1.2 8.5-2.7l7.8-2.8V295.3l-7.2-2.2c-4-1.1-7.9-2.1-8.5-2.1-1 0-1.3 58.7-1.3 290zM678.8 299.3l-2.8 1.1v321.3l3.5 1 3.5 1.1V460.9c0-89.6-.3-162.9-.7-162.8-.5.1-2 .6-3.5 1.2zm-18 6.4c-1.7.4-1.8 8.7-1.8 155.8v155.3l2.3.6c1.2.3 2.8.6 3.5.6.9 0 1.2-32 1.2-156.5 0-148.4-.1-156.5-1.7-156.4-1 .1-2.6.3-3.5.6zM1563 578.9c0 150.8.3 274.1.6 274.1.4 0 4.7-1.4 9.5-3.2l8.9-3.2V311.1l-8.7-2.7c-4.9-1.4-9.1-2.8-9.5-3.1-.5-.2-.8 122.9-.8 273.6zM645.8 311.2l-2.8 1V612l2.5.6c1.4.4 2.8.4 3 .2.3-.3.4-68.4.3-151.5l-.3-151-2.7.9zM1611 578c0 141.9.1 258 .3 258 .1 0 3.8-1.3 8.2-2.9l8-2.9.3-252.5.2-252.6-8-2.6c-4.5-1.4-8.3-2.5-8.6-2.5-.2 0-.4 116.1-.4 258zm43-1.5c0 151.8.4 243.5.9 243.5.6 0 4.2-1.2 8-2.6l7.1-2.6-.2-238.6-.3-238.5-5-1.7c-2.7-.9-6.2-2-7.7-2.4l-2.8-.6v243.5zm38-.9v230.6l2.8-.5c1.5-.3 4.8-1.5 7.5-2.6l4.7-2-.2-226.3-.3-226.2-6-1.8c-3.3-1-6.6-1.8-7.2-1.8-1 0-1.3 46.8-1.3 230.6zm35-1.1c0 175.4.3 219.6 1.3 219.3.6-.3 3.6-1.3 6.5-2.3l5.2-1.9-.2-215.5-.3-215.5-4.4-1.3c-2.4-.7-5.2-1.5-6.2-1.8-1.8-.6-1.9 5.3-1.9 219zm31-1c0 172.2.2 208.5 1.3 208.5.7 0 3.4-.7 6-1.6l4.7-1.6-.2-205.5-.3-205.6-4.5-1.3c-2.5-.8-5.1-1.4-5.7-1.4-1 0-1.3 42.4-1.3 208.5zm29-1.1c0 159 .3 199.6 1.3 199.6.6 0 3.1-.9 5.5-2l4.2-1.9V376.9l-3.2-1.3c-1.8-.8-4.3-1.7-5.5-2l-2.3-.7v199.5zm26-.3v191l2.3-.7c1.2-.3 3.4-1.3 5-2.1l2.7-1.4-.2-187.6-.3-187.6-4.5-1.3c-2.5-.8-4.6-1.4-4.7-1.4-.2 0-.3 86-.3 191.1zm24-1c0 104.3.4 182.9.9 182.9s2.5-.7 4.5-1.5l3.6-1.5-.2-180.2-.3-180.2-4.2-1.2-4.3-1.3v183zm22-.7c0 96.6.4 175.6.9 175.6.4 0 2.2-.5 4-1.1l3.1-1.1V397.1l-2.2-.6c-1.3-.4-3.1-.9-4-1.1-1.7-.5-1.8 8.3-1.8 175zm20-.4c0 154.4.1 169.2 1.6 168.6.9-.3 2.7-.9 4-1.2l2.4-.6V403.1l-2.2-.6c-1.3-.4-3.1-.9-4-1.1-1.7-.5-1.8 8-1.8 168.6zm19-.5c0 102.3.4 162.5 1 162.5.5 0 2.1-.5 3.5-1.2l2.5-1.1V409l-2.6-1c-1.4-.6-3-1-3.5-1s-.9 62.4-.9 162.5zm17-.5c0 86.3.2 157 .4 157 .1 0 1.7-.5 3.5-1.1l3.1-1.1V414l-2.6-1c-1.4-.6-3-1-3.5-1s-.9 60.3-.9 157zm17-.5c0 83.3.2 151.5.4 151.5.3 0 1.6-.4 3-1l2.6-1V419l-2.6-1c-1.4-.6-2.7-1-3-1-.2 0-.4 68.2-.4 151.5zM166 737.1c-3.6 2.2-10.4 5.2-15.2 6.7-6.7 2-8.8 3.1-8.8 4.4 0 1.1 1 2 2.8 2.4 5 1 10.3 3.7 12.3 6.2 1.8 2.4 1.9 4.7 1.9 63.6-.1 46.4-.4 61.5-1.3 62.7-1.7 2.3-4.9 3.7-10.7 5-4.4.9-5.1 1.4-4.8 3.2.3 2.2.6 2.2 25.6 2.5l25.2.2v-2.4c0-2.1-.6-2.6-3.7-3.2-5-.9-9-3-10.3-5.3-.6-1.2-1-13.8-1-33.7v-31.7l4-3.8c5.5-5.3 11.4-8.5 18.9-10.5 13.3-3.3 23.4 1.2 26.6 12 1.2 3.9 1.5 11.4 1.5 34.8 0 35 0 34.8-8.2 37.3-2.8.8-5.8 1.5-6.6 1.5-.8 0-1.2.8-1 2.2l.3 2.3H238c24.4 0 24.5 0 24.8-2.2.3-1.8-.4-2.3-5-3.3-6.2-1.3-8.3-2.7-9.8-6.4-.6-1.7-1-14.8-1-34 0-34.6-.6-39.8-5.4-47.9-2.5-4.1-4.3-5.8-9-8.2-5.2-2.6-7-3-14-3-14 .1-26.8 6.1-36.8 17.3L178 810v-72.7l-2.3-2.1c-1.3-1.2-2.5-2.2-2.8-2.2-.2.1-3.3 1.9-6.9 4.1zm417-2c-4.6 3.9-14.9 8.3-24.2 10.3-4.6 1-3.7 4.3 1.5 5.7 2.3.6 5.4 1.7 6.9 2.5 5.9 3.1 5.8 1.7 5.8 67.4v60.2l-2.8 2.8c-1.9 1.9-4.7 3.2-8.5 4-5 1-5.7 1.4-5.7 3.6v2.4h51v-2.5c0-2-.6-2.5-3.7-3.1-5-.9-9-3-10.3-5.3-.6-1.2-1-13.9-1-34v-31.9l4.3-3.7c6.3-5.5 12.2-8.7 19.1-10.2 14-3.3 24 2.1 26.6 14.3.7 3.2 1 16.1.8 34.6l-.3 29.6-2.4 2.6c-1.5 1.6-4.3 2.9-7.8 3.6-4.7 1-5.4 1.4-5.1 3.3.3 2.2.4 2.2 24.8 2.2h24.5l.3-2.3c.2-1.4-.2-2.2-1-2.2-3.9 0-11.9-3.3-13-5.3-1-1.6-1.4-11.7-1.8-37.7-.5-33.6-.7-35.8-2.8-41.1C653 792 640.9 786.1 625 789c-9.6 1.7-18.1 6.2-26.1 13.7l-6.9 6.5v-71.9l-2.3-2.1c-2.8-2.7-3.5-2.7-6.7-.1zM477.3 743c-10.2 1.9-16.4 5-22.9 11.4-7.5 7.6-9.9 13.5-9.8 24.7.1 13.9 7.4 25.1 22.8 35.3 4.5 3 12.8 7.7 18.6 10.6 25.1 12.5 33 21.9 31.7 37.5-.8 10.8-6 18.4-16 23.7-3.6 2-5.7 2.3-14.2 2.3-9.2-.1-10.5-.3-16.1-3.2-10.1-5.3-21.1-19.3-23.8-30.6-.5-2.2-1.2-2.7-3.5-2.7h-2.9l.5 8.2c.3 4.6.8 11.4 1.2 15.2l.6 7 7 3.8c15.1 8.2 32.1 11.8 45.9 9.8 24.9-3.6 40.8-18 42.3-38.3 1.6-21.4-10.3-35.4-45-52.9-22.3-11.1-29.7-19.2-29.7-32.3 0-15.1 9.9-23.2 27.2-22.3 10 .5 16.8 3.7 23 10.7 4.2 4.8 10.4 16.7 11.4 21.9.6 2.7 1.1 3.2 3.7 3.2 2.9 0 2.9-.1 2.3-3.8-.3-2-.6-8.8-.6-15v-11.3l-6.2-3.9c-12.3-7.9-32.5-11.7-47.5-9zM1.7 746.7c-.3 1.5-.9 10.8-1.3 20.6l-.6 17.9 2.3-.4c1.9-.2 2.4-1.3 3.5-6.5 2.5-12.2 6.9-18.8 15.4-22.7 3.7-1.6 7.1-2.1 18.8-2.4l14.3-.4-.3 62.3c-.3 56.6-.5 62.7-2 65.5-1.9 3.5-6.2 5.9-12.3 6.9-9.4 1.5-9.5 1.6-9.5 4.1v2.4h68v-2.4c0-2.6-.8-2.9-9.3-4.1-5.4-.8-10.6-3.9-12.4-7.5-1-1.9-1.3-17-1.3-64.9v-62.3l14.3.4c15.5.5 19 1.5 25 6.8 4 3.5 7 10 8.7 18.7 1.1 5.7 1.5 6.3 3.7 6.3 2.4 0 2.4-.1 1.9-6.8-.3-3.7-.9-12.9-1.2-20.5l-.6-13.9-4.7.9c-5.9 1-110.3 1.1-115.8 0-4-.8-4.1-.7-4.6 2zm836.9 42.2c-3 3.3-13.1 8-21.2 9.9-6.6 1.5-7.9 2.1-7.9 3.7 0 1.4.8 2.1 2.5 2.3 1.4.1 4.4 1 6.8 1.8 7.2 2.7 7.2 2.7 7.2 40.9 0 21.2-.4 34.3-1 35.6-1.4 2.5-5.5 4.5-11.3 5.3-4.2.7-4.8 1-4.5 2.9.3 2.2.3 2.2 26.3 2.2s26 0 26.3-2.2c.3-1.9-.3-2.2-4.5-2.8-7.7-1.1-11.1-3.2-12.4-7.4-.7-2.5-1-12.1-.7-28.2.3-24.2.4-24.4 3.1-30.4 1.6-3.3 4-7.3 5.5-8.8 6.8-7.2 20.1-10.3 31-7.4l5.2 1.4V798c0-9.3-.1-9.8-2.2-10.4-3.9-1-13.1-.6-17 .8-7.7 2.8-16.1 11.9-23.3 25.3-2.1 4-3.4 5.3-5.1 5.3h-2.2l3.6-14.1 3.7-14.1-2.4-1.9c-2.9-2.4-3.4-2.4-5.5 0zm-522.1.2c-20 3.3-35.2 17.8-40.5 38.5-5 19.5-.6 38.7 12 51.8 9.6 10 21.3 15.3 36 16.3 9.5.6 19.1-1.2 26.2-4.8 5.9-3 13.4-10.3 15.9-15.6 2.1-4.4 2.2-4.6.4-5.9-1.7-1.2-2.2-1-4.7 2.1-1.6 1.9-5.9 4.9-9.6 6.7-6.1 3-7.4 3.3-16.2 3.3-11.3 0-17.3-1.8-25.2-7.5-9.5-6.7-16.1-18.9-17.5-32l-.6-6h36.6c24.9 0 36.8-.3 37.2-1.1.4-.6.9-3.7 1.2-6.9 1.6-17.7-12-34.4-31.4-38.5-7.4-1.6-12.2-1.7-19.8-.4zm17 8.8c8.7 3.9 14.4 12.8 15.3 23.7l.5 6.4h-56.4l.7-3.8c1.4-8.3 7.2-18.4 13-22.8 7.2-5.5 19.1-7.1 26.9-3.5zm400.6-8.8c-28.3 5.5-46.1 26.2-46.1 53.6 0 15.3 4.8 27.3 14.9 37.3 7.8 7.7 14.2 11.3 24.7 14 13.6 3.5 26.9 2 40.3-4.6 38.2-18.8 38.8-76.2 1-94.8-11.7-5.7-23.9-7.7-34.8-5.5zm19.4 10.2c13.8 7 22.4 24.6 22.5 45.9 0 20.2-6.4 33.4-19.5 39.9-5.9 2.9-7.1 3.1-13.7 2.7-4.7-.3-8.8-1.2-11.4-2.6-9.5-4.9-17.5-16.3-21-30.2-2.3-9.3-1.6-29.3 1.5-37.2 4-10.2 10.5-16.9 20-20.5 5.5-2 15.6-1.1 21.6 2zm188.5-9.7c-24.1 5.2-40 25.7-40.2 51.9-.2 16.5 4.4 28.7 14.7 39 23.1 23.1 67.1 19.3 77.9-6.7 1.3-3.1 1.3-3.5-.3-4.5-1.5-1-2.5-.5-6.1 3.2-10.5 10.7-29.7 12.5-45.3 4.2-12.6-6.6-19.5-18.3-22.1-37l-.5-3.7h72.8l1.3-2.3c1.9-3.6 1.3-14.4-1.2-21.2-3.1-8.2-12.4-17.4-20.6-20.5-11.4-4.2-19.2-4.9-30.4-2.4zm17.1 7.4c8.9 2.5 16.6 13.6 17.1 24.5l.3 6-27.9.3-27.9.2.7-4.2c1-6.3 5.2-14.7 9.4-19.2 7.2-7.5 18.1-10.4 28.3-7.6zM497 941.1c-1.9.6-5 2.2-6.8 3.5-10.7 8.2-10.1 27.8 1.1 35.2 3.5 2.3 5.1 2.7 11.7 2.7 6.4 0 8.2-.4 11.2-2.4 7.7-5.3 11.1-15.1 8.4-24.4-.9-3-2.5-6.6-3.7-8.1-4.4-5.6-14.7-8.6-21.9-6.5zm13.9 6.8c6.7 4.8 8.8 13.4 5.3 21.4-2.9 6.5-7 8.9-14.4 8.4-4.4-.2-6.4-.9-8.4-2.8-9.1-8.4-6.1-25.5 5.1-28.9 3.9-1.2 9.4-.4 12.4 1.9zm45.2-6.4c-8.5 2.7-14.1 10.7-14.1 20.5 0 12.7 8.4 21 21.2 21 5.5 0 9.7-1.6 13.5-5.2 1.7-1.6 2-2.4 1.2-3.5-1.2-1.4-4.9-1.8-4.9-.5 0 1.7-6.1 4.2-10.3 4.2-12 0-19.4-14.7-12.7-25.4 4.5-7.3 14.7-9.3 21.4-4.3 3.1 2.4 3.9 2.6 5.8 1.6 2.2-1.2 2.1-1.2-1.4-4.5-3.5-3.2-9.2-5.5-13.3-5.3-1.1 0-4 .6-6.4 1.4zm178.6-.3c-9.6 2.5-16.2 14.7-13.8 25.3 2.5 11.3 10.1 17 21.5 16.3 12-.7 19.1-8.7 19-21.3 0-10.2-5.6-17.9-14.9-20.4-4.7-1.3-6.6-1.3-11.8.1zm14.2 6.7c4.6 3.2 6.5 6.8 6.8 12.8.3 4.4-.1 6.7-1.5 9.3-5.9 10.9-21.2 10.7-26.2-.3-5.7-12.5 2.6-25.9 15-24.1 1.9.3 4.6 1.3 5.9 2.3zm107.2-6.4c-10.9 3.5-16.5 15.3-13.1 27.7 2.3 8.3 10.1 13.8 19.5 13.8 12.2 0 20.5-8.5 20.5-21 0-15-13.1-25-26.9-20.5zm15.1 6.6c4 2.9 5.8 7 5.8 13.4 0 10.6-5.2 16.5-14.5 16.5-9.1 0-14.5-6.1-14.5-16.2 0-7.2 2.5-11.7 8.1-14.6 5.1-2.7 10.4-2.4 15.1.9zM443 962v21h24v-2.5c0-2.5 0-2.5-9.5-2.5H448v-37h-5v21zm154.2-.3l.3 20.8h2.5c2.5 0 2.5-.1 2.8-9.3l.3-9.2h22.8l.3 9.2.3 9.3 2.8.3 2.7.3V941h-6v18h-23v-18h-6l.2 20.7zm83.8.3v21.1l12.3-.3c11.8-.3 12.2-.4 12.5-2.6.3-2.2.1-2.2-9.7-2.2H686v-37h-5v21zm100.2-.3l.3 20.8 2.7.3 2.8.3.2-16.6.3-16.6 6.5 16.2c3.6 9 7.1 16.4 7.7 16.6.5.2 4.1-7.2 7.9-16.4l6.9-16.8.3 16.7.2 16.8h5v-42h-7.5l-4.9 12.2c-2.8 6.8-5.6 13.9-6.4 15.8l-1.4 3.5-6.2-15.5-6.2-15.5-4.2-.3-4.2-.3.2 20.8zm121.8.4v21l2.8-.3 2.7-.3.5-15.5.5-15.5 11.5 15.8c10.1 13.8 11.8 15.7 14 15.5l2.5-.3.3-20.8.2-20.7h-5.9l-.3 15.6-.3 15.6-11.5-15.6c-10-13.7-11.8-15.6-14.2-15.6H903v21.1zm56-.1v21h7.8c18.4 0 27.3-7.1 27.3-21.6 0-9-5.8-17.1-13.9-19.4-2-.5-7.6-1-12.4-1H959v21zm21.8-14.1c5.2 2.7 7.6 7.3 7.7 14.3 0 4.2-.6 6.4-2.1 8.4-3.8 5.2-6.6 6.5-14.7 7.1l-7.7.6V946h6.5c4.5 0 7.8.6 10.3 1.9z"/></svg>