<svg xmlns="http://www.w3.org/2000/svg" width="797.749" height="1003.87" viewBox="0 0 797.749 1003.87"><path fill="#FFF" d="M791.174 383.277C788.666 169.509 613.643-1.916 399.869.016 186.096-1.916 11.072 169.509 8.564 383.277A374.778 374.778 0 0 0 85.956 612.19l278.913 369.566a43.329 43.329 0 0 0 4.565 4.781l2.392 2.174h1.521a43.435 43.435 0 0 0 9.348 4.783l3.261 1.088a43.49 43.49 0 0 0 13.913 5.434c4.058-.09 8.082-.75 11.957-1.957l3.261-1.086a43.435 43.435 0 0 0 9.348-4.783h1.521l2.392-2.174a43.316 43.316 0 0 0 4.564-4.781l278.914-369.566a374.79 374.79 0 0 0 79.348-232.392zM399.869 86.973c165.8-2.055 301.963 130.509 304.348 296.304a288.692 288.692 0 0 1-60 176.522L399.869 884.363 155.738 560.016a288.708 288.708 0 0 1-60.217-176.739C97.906 217.482 234.07 84.917 399.869 86.973z"/><path fill="#FFF" d="M399.869 535.451c84.043 0 152.174-68.131 152.174-152.174s-68.131-152.174-152.174-152.174-152.174 68.131-152.174 152.174 68.131 152.174 152.174 152.174zm0-217.392c36.019 0 65.218 29.199 65.218 65.218s-29.199 65.218-65.218 65.218-65.217-29.199-65.217-65.218 29.199-65.217 65.217-65.218z"/></svg>