<?xml version="1.0" encoding="utf-8"?>
<!-- Generator: Adobe Illustrator 16.0.0, SVG Export Plug-In . SVG Version: 6.00 Build 0)  -->
<!DOCTYPE svg PUBLIC "-//W3C//DTD SVG 1.1//EN" "http://www.w3.org/Graphics/SVG/1.1/DTD/svg11.dtd">
<svg version="1.1" id="Layer_2" xmlns="http://www.w3.org/2000/svg" xmlns:xlink="http://www.w3.org/1999/xlink" x="0px" y="0px"
	 width="797.749px" height="1003.87px" viewBox="0 0 797.749 1003.87" enable-background="new 0 0 797.749 1003.87"
	 xml:space="preserve">
<path fill="#FFFFFF" d="M791.174,383.277C788.666,169.509,613.643-1.916,399.869,0.016C186.096-1.916,11.072,169.509,8.564,383.277
	c-0.184,82.756,27.029,163.247,77.392,228.913l0,0l278.913,369.566l0,0c1.398,1.707,2.924,3.307,4.565,4.781l2.392,2.174l0,0h1.521
	c2.911,1.967,6.05,3.572,9.348,4.783l3.261,1.088c4.29,2.6,8.997,4.439,13.913,5.434l0,0c4.058-0.09,8.082-0.75,11.957-1.957
	l3.261-1.086c3.298-1.211,6.437-2.816,9.348-4.783h1.521l0,0l2.392-2.174c1.641-1.475,3.167-3.074,4.564-4.781l0,0l278.914-369.566
	l0,0C763.623,549.314,791.572,467.454,791.174,383.277z M399.869,86.973c165.8-2.055,301.963,130.509,304.348,296.304
	c0.073,63.857-21.027,125.936-60,176.522l0,0L399.869,884.363L155.738,560.016l0,0C116.644,509.4,95.463,447.234,95.521,383.277
	C97.906,217.482,234.07,84.917,399.869,86.973z"/>
<path fill="#FFFFFF" d="M399.869,535.451c84.043,0,152.174-68.131,152.174-152.174s-68.131-152.174-152.174-152.174
	s-152.174,68.131-152.174,152.174S315.826,535.451,399.869,535.451z M399.869,318.059c36.019,0,65.218,29.199,65.218,65.218
	s-29.199,65.218-65.218,65.218s-65.217-29.199-65.217-65.218S363.851,318.06,399.869,318.059L399.869,318.059z"/>
</svg>
