<?xml version="1.0" encoding="utf-8"?>
<!-- Generator: Adobe Illustrator 16.0.0, SVG Export Plug-In . SVG Version: 6.00 Build 0)  -->
<!DOCTYPE svg PUBLIC "-//W3C//DTD SVG 1.1//EN" "http://www.w3.org/Graphics/SVG/1.1/DTD/svg11.dtd">
<svg version="1.1" id="Layer_1" xmlns="http://www.w3.org/2000/svg" xmlns:xlink="http://www.w3.org/1999/xlink" x="0px" y="0px"
	 width="1000px" height="1000px" viewBox="0 0 1000 1000" enable-background="new 0 0 1000 1000" xml:space="preserve">
<g>
	<path fill="#FFFFFF" d="M907.7,659.6c4.7,3.7,9.3,7.5,13.8,11.2c30,24.8,42.1,38.601,43.3,40.101l0,0l0,0l0,0c0,0,2.601,3,5.2,6.1
		c1.4,1.6,2.7,3.2,3.7,4.4c0.6,0.8,1.2,1.399,1.5,1.899c0.8,1,1.5,2.101,2.1,3.101l6.4,9.3v0.899c12.6,25.2,3.8,58.4-4.101,75.2
		C965.7,841.4,939.7,871.5,919.9,889.7C880.1,926.4,825.6,968.6,757.4,968.6c-7.101,0-14.4-0.5-21.601-1.399
		c-49.7-6.2-125.6-36.101-208.2-82C437.9,835.4,351.4,772.8,284,708.8c-67.4-64-133.5-146.2-186-231.399
		C49.5,398.8,17.9,326.3,11.3,278.7c-4.4-31.2,3.3-65.9,22.3-100.3c17-30.8,42.2-60.4,73.1-85.8c1.8-1.5,3.6-3,5.4-4.4
		c23.7-19.6,44.3-36.5,78.3-49.2c12-5.1,23.2-7.5,34.4-7.5c10.3,0,20.6,2.1,30.6,6.4l0.5,0.2c4.5,2,12,5.9,14,7
		c5.9,2.8,37.9,19.7,73.3,66.8c11.3,15.1,29.2,40.5,42.1,62.6c21.8,37.2,36.101,69.3,36.7,70.7l0.4,0.9l2.8,8.3
		c9.2,23.3,3.8,47.5-14.5,64.9c-1.101,1-2.3,2.3-2.3,2.3l-1.5,1.5l-1.101,0.8c-0.8,0.6-2.3,1.9-3.3,2.8c-2.8,2.4-3.6,3.1-4.6,3.8
		l-0.801,0.6c-11.699,7.7-15.899,10-20.399,12.4c-3,1.7-6.2,3.4-12.9,7.6l-0.3,0.2c-11.5,6.9-22.5,11.3-34.1,15.9
		c-9.101,3.6-19.5,7.8-32,13.9c-18,8.8-18.7,33.8-15,42.1c22.3,49.6,61.8,99.8,128.1,162.8c58.5,55.6,116,91.1,164.5,118.6
		c5.9,3.301,11.7,5,17.8,5c17.101,0,33.601-13.3,41-26.5c5.7-10.1,11-20.8,15.7-30.1c3.8-7.6,7.5-14.8,10.9-21.1l0.1-0.101
		c8.6-15.3,14.9-25.1,18.6-30.7c2.7-4,5.301-7.8,8.4-11c7.4-10.399,19-19.199,31.4-23.5c7-2.399,15-3.699,23.3-3.699
		c10.7,0,20.899,2.1,28.8,6l21.1,10.6l0,0c1.601,0.8,3.301,1.8,5.2,3c2.3,1.4,5.7,3.5,10,6.2c7.601,4.8,19.8,12.6,34.4,22.3
		c2.399,1.6,5,3.3,7.6,5.1 M718.7,619.2c-1.601,1.899-8.9,12-20.8,33.2c-3,5.5-6.5,12.399-10.101,19.6
		c-4.899,9.8-10.5,20.8-16.6,31.8c-13.5,24.101-43,48.5-78.5,48.5c-13.5,0-26.7-3.5-39-10.5C502.9,713,442.6,675.7,380.8,617
		C310.2,550,267.7,495.6,243,440.7c-6.4-14.2-7.4-33.2-2.7-50.8c5.7-21.5,19.2-38.4,38-47.5c14-6.8,25.1-11.3,34.9-15.2
		c10.7-4.3,19.2-7.7,27.7-12.7c7.699-4.8,11.5-6.9,14.899-8.7c3.7-2,6.9-3.8,16.5-10c0.5-0.5,1.3-1.1,2.101-1.8
		c2-1.7,3.3-2.8,4.199-3.6c0.5-0.5,1.2-1.2,1.9-1.9l0.3-0.3c5.7-5.4,7-11.3,4.101-18.4l-0.5-1.3l-2.301-6.9
		c-2.399-5.3-15.399-33.7-34-65.3c-9.899-16.9-25.399-39.9-39.399-58.5c-29.7-39.4-56-53.1-57.7-54l-0.9-0.5
		c-3-1.6-8.8-4.6-11.7-5.9c-4.7-1.9-9.2-2.9-13.7-2.9c-5.5,0-11.2,1.4-18,4.3l-1,0.4c-27.5,10.2-43.8,23.6-66.3,42.2
		c-1.8,1.5-3.6,3-5.4,4.5c-55,45-86.4,102.7-80.2,146.8c5.8,41.4,36,109.4,80.8,182.1c50.6,82.101,114.2,161.2,179,222.8
		C378.5,739.2,461.9,799.6,548.5,847.7c76.8,42.7,148.9,71.399,192.7,76.899c5.399,0.7,10.899,1,16.2,1
		c41.6,0,82.699-20.8,133.399-67.5c16-14.8,38.7-40.5,49.9-64.5c6.5-14,8.399-32.5,3.899-38.899L940.7,749.1V749l-0.4-0.6
		c-1.8-2.101-5.2-6.2-8.1-9.601c-0.101-0.1-10.9-12.5-38.101-34.899c-25.8-21.301-55-43.301-76.199-57.2c-24-15.8-42-27-45.801-29.3
		L751.7,607.2c-1-0.5-4.5-1.5-9.601-1.5c-3.5,0-6.8,0.5-9.3,1.3c-4.899,1.7-9.399,6-10.899,8.5L718.7,619.2z"/>
</g>
</svg>
