<?xml version="1.0" encoding="utf-8"?>
<!-- Generator: Adobe Illustrator 16.0.0, SVG Export Plug-In . SVG Version: 6.00 Build 0)  -->
<!DOCTYPE svg PUBLIC "-//W3C//DTD SVG 1.1//EN" "http://www.w3.org/Graphics/SVG/1.1/DTD/svg11.dtd">
<svg version="1.1" id="Layer_2" xmlns="http://www.w3.org/2000/svg" xmlns:xlink="http://www.w3.org/1999/xlink" x="0px" y="0px"
	 width="1000px" height="1000px" viewBox="0 0 1000 1000" enable-background="new 0 0 1000 1000" xml:space="preserve">
<path fill="#FFFFFF" d="M762.299,980.355c-58.75,0-133.873-38.088-213.406-78.412c-18.78-9.521-38.2-19.368-57.418-28.712
	c-49.597-24.116-110.795-69.148-181.894-133.847c-60.4-54.963-108.791-106.869-127.862-128.874
	C139.563,561.87,73.553,448.066,32.846,365.682c-21.834-44.188-30.14-84.588-25.394-123.511
	c4.635-38.009,21.055-69.294,36.506-94.885c22.396-37.093,61.727-66.995,83.178-81.518c34.052-23.054,67.878-38.238,90.485-40.618
	c2.189-0.23,4.435-0.347,6.674-0.347c24.207,0,50.279,13.174,79.706,40.276c18.884,17.392,38.923,40.271,59.56,68.002
	c36.678,49.286,63.093,110.809,71.937,136.453c3.184,9.234,5.727,27.794-13.022,48.344c-7.897,8.656-19.179,17.373-34.489,26.647
	c-25.052,15.176-56.666,29.228-79.749,39.487c-4.473,1.988-8.645,3.842-12.403,5.542c-4.879,2.208-10.084,5.684-10.084,19.07
	c0,10.404,3.407,19.976,3.441,20.066c10.66,27.715,39.41,72.055,171.641,190.311c62.573,55.959,104.276,84.333,123.951,84.333
	c3.43,0,6.741-0.821,11.325-1.958c2.382-0.59,5.082-1.26,7.998-1.843c2.653-0.531,8.53-3.304,18.077-15.915
	c9.517-12.571,19.216-30.063,30.445-50.318c3.83-6.908,7.79-14.051,11.966-21.395c21.378-37.596,47.657-56.657,78.109-56.657
	c14.471,0,27.024,4.45,35.208,7.799c20.008,8.185,76.406,48.851,167.628,120.868c32.871,25.951,49.484,52.747,50.788,81.92
	c1.31,29.311-13.353,55.775-27.866,77.798c-16.815,25.513-43.965,54.044-74.487,78.278c-24.917,19.784-63.188,45.441-104.008,55.316
	C781.391,979.304,772.082,980.355,762.299,980.355z M224.295,79.804c-0.329,0-0.628,0.015-0.917,0.045
	c-11.142,1.173-37.186,12.357-65.409,31.464c-30.145,20.409-54.54,43.882-66.928,64.401c-22.17,36.719-27.098,57.566-28.994,73.115
	c-3.409,27.954,3.168,58.208,20.106,92.489c39.74,80.426,103.394,189.633,141.127,233.171
	c50.292,58.03,193.702,201.364,292.244,249.279c19.63,9.545,39.257,19.496,58.238,29.12
	c73.504,37.267,142.932,72.467,188.535,72.467c5.431,0,10.389-0.533,14.734-1.585c50.998-12.338,117.614-68.087,145.506-110.404
	c13.691-20.773,19.327-34.254,18.844-45.075c-0.201-4.508-0.814-18.227-29.923-41.207
	c-96.981-76.564-143.771-108.795-154.372-113.132c-6.262-2.562-10.698-3.703-14.384-3.703c-11.485,0-22.816,15.686-30.299,28.845
	c-4.028,7.085-7.916,14.096-11.675,20.876c-25.54,46.064-47.597,85.848-85.837,93.496c-1.686,0.337-3.562,0.803-5.549,1.295
	c-6.423,1.593-14.415,3.574-24.562,3.574c-30.406,0-69.356-16.723-160.615-98.337C291.41,541.271,253.664,489.531,237.833,448.372
	c-0.747-1.955-7.083-19.146-7.083-39.747c0-32.238,15.063-56.807,42.416-69.18c3.858-1.746,8.142-3.65,12.734-5.691
	c18.903-8.401,42.428-18.857,62.697-30c20.412-11.221,29.155-18.648,32.72-22.364c-10.505-28.143-33.749-77.673-61.878-115.472
	C268.851,97.94,235.831,79.804,224.295,79.804z"/>
</svg>
