<svg xmlns="http://www.w3.org/2000/svg" width="1000" height="1000" viewBox="0 0 1000 1000"><path fill="#FFF" d="M762.299 980.355c-58.75 0-133.873-38.088-213.406-78.412-18.78-9.521-38.2-19.368-57.418-28.712-49.597-24.116-110.795-69.148-181.894-133.847-60.4-54.963-108.791-106.869-127.862-128.874-42.156-48.64-108.166-162.444-148.873-244.828-21.834-44.188-30.14-84.588-25.394-123.511 4.635-38.009 21.055-69.294 36.506-94.885 22.396-37.093 61.727-66.995 83.178-81.518 34.052-23.054 67.878-38.238 90.485-40.618a64.134 64.134 0 0 1 6.674-.347c24.207 0 50.279 13.174 79.706 40.276 18.884 17.392 38.923 40.271 59.56 68.002 36.678 49.286 63.093 110.809 71.937 136.453 3.184 9.234 5.727 27.794-13.022 48.344-7.897 8.656-19.179 17.373-34.489 26.647-25.052 15.176-56.666 29.228-79.749 39.487-4.473 1.988-8.645 3.842-12.403 5.542-4.879 2.208-10.084 5.684-10.084 19.07 0 10.404 3.407 19.976 3.441 20.066 10.66 27.715 39.41 72.055 171.641 190.311 62.573 55.959 104.276 84.333 123.951 84.333 3.43 0 6.741-.821 11.325-1.958 2.382-.59 5.082-1.26 7.998-1.843 2.653-.531 8.53-3.304 18.077-15.915 9.517-12.571 19.216-30.063 30.445-50.318 3.83-6.908 7.79-14.051 11.966-21.395 21.378-37.596 47.657-56.657 78.109-56.657 14.471 0 27.024 4.45 35.208 7.799 20.008 8.185 76.406 48.851 167.628 120.868 32.871 25.951 49.484 52.747 50.788 81.92 1.31 29.311-13.353 55.775-27.866 77.798-16.815 25.513-43.965 54.044-74.487 78.278-24.917 19.784-63.188 45.441-104.008 55.316-8.576 2.077-17.885 3.128-27.668 3.128zM224.295 79.804c-.329 0-.628.015-.917.045-11.142 1.173-37.186 12.357-65.409 31.464-30.145 20.409-54.54 43.882-66.928 64.401-22.17 36.719-27.098 57.566-28.994 73.115-3.409 27.954 3.168 58.208 20.106 92.489 39.74 80.426 103.394 189.633 141.127 233.171 50.292 58.03 193.702 201.364 292.244 249.279 19.63 9.545 39.257 19.496 58.238 29.12 73.504 37.267 142.932 72.467 188.535 72.467 5.431 0 10.389-.533 14.734-1.585 50.998-12.338 117.614-68.087 145.506-110.404 13.691-20.773 19.327-34.254 18.844-45.075-.201-4.508-.814-18.227-29.923-41.207-96.981-76.564-143.771-108.795-154.372-113.132-6.262-2.562-10.698-3.703-14.384-3.703-11.485 0-22.816 15.686-30.299 28.845-4.028 7.085-7.916 14.096-11.675 20.876-25.54 46.064-47.597 85.848-85.837 93.496-1.686.337-3.562.803-5.549 1.295-6.423 1.593-14.415 3.574-24.562 3.574-30.406 0-69.356-16.723-160.615-98.337C291.41 541.271 253.664 489.531 237.833 448.372c-.747-1.955-7.083-19.146-7.083-39.747 0-32.238 15.063-56.807 42.416-69.18 3.858-1.746 8.142-3.65 12.734-5.691 18.903-8.401 42.428-18.857 62.697-30 20.412-11.221 29.155-18.648 32.72-22.364-10.505-28.143-33.749-77.673-61.878-115.472-50.588-67.978-83.608-86.114-95.144-86.114z"/></svg>